<svg xmlns="http://www.w3.org/2000/svg" width="500" height="500" fill="none"><g clip-path="url(#a)"><path fill="#12E1B9" d="M0 0h500v500H0V0Z"/><path fill="#070D29" d="M99.564 124.52c13.44 0 27 .12 40.68.36 13.68 0 27.12.24 40.32.72s25.56 1.32 37.08 2.52l-2.52 39.96h-95.4c-6 0-10.56 1.56-13.68 4.68-2.88 3.12-4.32 7.68-4.32 13.68v126.72c0 6 1.44 10.56 4.32 13.68 3.12 3.12 7.68 4.68 13.68 4.68h95.4l2.52 39.96c-11.52.96-23.88 1.8-37.08 2.52-13.2.48-26.64.72-40.32.72-13.68.24-27.24.36-40.68.36-15.84 0-28.68-4.56-38.52-13.68-9.6-9.36-14.4-21.48-14.4-36.36V174.56c0-15.12 4.8-27.24 14.4-36.36 9.84-9.12 22.68-13.68 38.52-13.68Zm-46.44 100.8h148.68v38.88H53.124v-38.88Zm299.984-104.76c19.68 0 36.36 2.16 50.04 6.48 13.68 4.08 24.6 11.04 32.76 20.88 8.4 9.6 14.52 22.8 18.36 39.6 3.84 16.56 5.76 37.32 5.76 62.28s-1.92 45.84-5.76 62.64c-3.84 16.56-9.96 29.76-18.36 39.6-8.16 9.6-19.08 16.56-32.76 20.88-13.68 4.08-30.36 6.12-50.04 6.12s-36.36-2.04-50.04-6.12c-13.68-4.32-24.72-11.28-33.12-20.88-8.4-9.84-14.52-23.04-18.36-39.6-3.84-16.8-5.76-37.68-5.76-62.64s1.92-45.72 5.76-62.28c3.84-16.8 9.96-30 18.36-39.6 8.4-9.84 19.44-16.8 33.12-20.88 13.68-4.32 30.36-6.48 50.04-6.48Zm0 43.56c-12.72 0-22.68 2.52-29.88 7.56-6.96 5.04-12 13.8-15.12 26.28-2.88 12.24-4.32 29.52-4.32 51.84 0 22.08 1.44 39.36 4.32 51.84 3.12 12.48 8.16 21.24 15.12 26.28 7.2 5.04 17.16 7.56 29.88 7.56 12.48 0 22.2-2.52 29.16-7.56 7.2-5.04 12.24-13.8 15.12-26.28 3.12-12.48 4.68-29.76 4.68-51.84 0-22.32-1.56-39.6-4.68-51.84-2.88-12.48-7.92-21.24-15.12-26.28-6.96-5.04-16.68-7.56-29.16-7.56Z"/></g><defs><clipPath id="a"><path fill="#fff" d="M0 0h500v500H0z"/></clipPath></defs></svg>
