<?xml version="1.0" standalone="no"?>
<!DOCTYPE svg PUBLIC "-//W3C//DTD SVG 20010904//EN"
 "http://www.w3.org/TR/2001/REC-SVG-20010904/DTD/svg10.dtd">
<svg version="1.0" xmlns="http://www.w3.org/2000/svg"
 width="298.000000pt" height="298.000000pt" viewBox="0 0 298.000000 298.000000"
 preserveAspectRatio="xMidYMid meet">
<metadata>
Created by potrace 1.14, written by Peter Selinger 2001-2017
</metadata>
<g transform="translate(0.000000,298.000000) scale(0.100000,-0.100000)"
fill="#000000" stroke="none">
<path d="M1920 2200 c-348 -44 -462 -242 -447 -773 6 -211 21 -303 67 -403 52
-116 142 -189 276 -225 105 -28 372 -32 477 -6 181 45 286 155 332 348 40 172
40 533 -1 698 -35 138 -103 240 -200 297 -94 55 -336 86 -504 64z m280 -263
c97 -49 132 -168 132 -447 0 -339 -48 -444 -217 -472 -53 -9 -77 -8 -129 5
-36 9 -77 23 -91 33 -38 25 -83 127 -95 217 -13 101 -13 333 0 434 12 90 56
188 97 218 67 48 220 53 303 12z"/>
<path d="M589 2179 c-86 -13 -163 -69 -205 -149 -18 -32 -19 -69 -22 -513 -3
-415 -1 -486 13 -534 20 -69 77 -133 148 -164 50 -23 60 -23 297 -21 135 1
300 5 368 8 l123 6 -6 102 c-4 55 -8 107 -10 114 -3 9 -70 12 -290 12 l-286 0
-24 25 c-24 24 -25 28 -25 185 l0 160 275 0 275 0 0 110 0 110 -275 0 -275 0
0 129 c0 115 2 131 21 155 l20 26 290 0 c223 0 291 3 294 13 2 6 6 58 10 113
l6 102 -113 6 c-196 10 -561 13 -609 5z"/>
</g>
</svg>
